<svg xmlns="http://www.w3.org/2000/svg" viewBox="0 0 820 240" role="img" aria-label="gflow">
  <defs>
    <radialGradient id="glow" cx="50%" cy="50%" r="50%">
      <stop offset="0%" stop-color="#8affc6" stop-opacity="0.30"/>
      <stop offset="100%" stop-color="#8affc6" stop-opacity="0"/>
    </radialGradient>
    <linearGradient id="panel" x1="0" y1="0" x2="0" y2="1">
      <stop offset="0%" stop-color="#071210"/>
      <stop offset="100%" stop-color="#04090a"/>
    </linearGradient>
  </defs>
  <rect x="1" y="1" width="818" height="238" rx="30" fill="url(#panel)" stroke="#ffffff" stroke-opacity="0.07"/>
  <circle cx="296" cy="120" r="120" fill="url(#glow)"/>
  <!-- comet mark -->
  <g transform="translate(242,65) scale(2.75)" fill="none">
    <path d="M17.50 4.20 L18.89 4.04 L20.28 4.00 L21.68 4.09 L23.06 4.30 L24.42 4.62 L25.74 5.07 L27.02 5.62 L28.25 6.29 L29.42 7.06 L30.51 7.94 L31.52 8.90 L32.45 9.95 L33.28 11.07 L34.01 12.26 L34.63 13.52 L35.14 14.82 L35.53 16.16 L35.81 17.53 L35.96 18.92 L36.00 20.31 L35.91 21.71 L35.70 23.09 L35.37 24.45 L34.92 25.77 L34.36 27.05 L33.69 28.28 L32.92 29.44 L32.04 30.53 L31.08 31.54 L30.03 32.47 L28.90 33.29 L27.71 34.02 L26.46 34.64 L25.15 35.15 L23.81 35.54 L22.44 35.81 L21.05 35.97 L19.65 36.00 L18.26 35.91 L16.88 35.69 L15.52 35.36 L14.20 34.91 L12.92 34.35 L11.69 33.67 L10.53 32.90 L9.44 32.02 L8.43 31.06 L7.51 30.00 L6.69 28.88 L5.96 27.68 L5.35 26.43 L4.84 25.12 L4.45 23.78 L4.18 22.41 L4.03 21.02 L4.00 19.62 L4.10 18.23 L4.31 16.85 L4.65 15.49 L5.10 14.17 L5.67 12.89 L6.34 11.67 L7.12 10.51 L8.00 9.42 L13.17 13.98 L12.59 14.54 L12.06 15.15 L11.57 15.82 L11.15 16.54 L10.78 17.29 L10.48 18.09 L10.25 18.91 L10.09 19.77 L10.01 20.64 L10.00 21.52 L10.07 22.41 L10.22 23.30 L10.46 24.19 L10.77 25.05 L11.16 25.89 L11.63 26.71 L12.17 27.48 L12.79 28.21 L13.47 28.89 L14.22 29.51 L15.03 30.07 L15.89 30.56 L16.80 30.98 L17.75 31.32 L18.73 31.57 L19.75 31.74 L20.78 31.82 L21.82 31.80 L22.87 31.70 L23.91 31.50 L24.94 31.21 L25.95 30.82 L26.93 30.35 L27.87 29.78 L28.76 29.13 L29.60 28.40 L30.38 27.59 L31.09 26.71 L31.72 25.76 L32.28 24.75 L32.74 23.69 L33.11 22.58 L33.39 21.44 L33.57 20.27 L33.64 19.07 L33.61 17.87 L33.47 16.67 L33.22 15.47 L32.87 14.30 L32.41 13.15 L31.85 12.03 L31.19 10.96 L30.43 9.95 L29.58 9.00 L28.64 8.13 L27.63 7.33 L26.54 6.62 L25.38 6.01 L24.17 5.49 L22.91 5.09 L21.60 4.79 L20.27 4.61 L18.92 4.54 L17.56 4.59 Z" fill="#8affc6"/>
    <circle cx="10.44" cy="11.57" r="3.6" fill="#ffb453"/>
  </g>
  <text x="386" y="152" font-family="'Avenir Next','Helvetica Neue',Helvetica,Arial,sans-serif" font-size="96" font-weight="800" letter-spacing="-3" fill="#f4f8f5">gflow</text>
</svg>
